<svg xmlns="http://www.w3.org/2000/svg" xmlns:xlink="http://www.w3.org/1999/xlink" width="500" zoomAndPan="magnify" viewBox="0 0 375 374.999991" height="500" preserveAspectRatio="xMidYMid meet" version="1.0"><defs><clipPath id="2dd9d08ed0"><path d="M 100.882812 0 L 274.117188 0 C 275.765625 0 277.417969 0.0390625 279.066406 0.121094 C 280.714844 0.203125 282.359375 0.324219 284.003906 0.484375 C 285.648438 0.648438 287.285156 0.851562 288.917969 1.09375 C 290.550781 1.335938 292.175781 1.617188 293.796875 1.9375 C 295.417969 2.261719 297.027344 2.621094 298.628906 3.023438 C 300.230469 3.425781 301.820312 3.863281 303.402344 4.34375 C 304.980469 4.824219 306.546875 5.339844 308.101562 5.898438 C 309.65625 6.453125 311.195312 7.046875 312.722656 7.679688 C 314.246094 8.3125 315.757812 8.980469 317.25 9.6875 C 318.742188 10.390625 320.214844 11.132812 321.671875 11.914062 C 323.128906 12.691406 324.5625 13.503906 325.980469 14.351562 C 327.398438 15.203125 328.792969 16.085938 330.164062 17.003906 C 331.535156 17.917969 332.886719 18.871094 334.210938 19.851562 C 335.539062 20.835938 336.839844 21.851562 338.117188 22.898438 C 339.390625 23.945312 340.640625 25.023438 341.867188 26.132812 C 343.089844 27.242188 344.285156 28.382812 345.453125 29.546875 C 346.617188 30.714844 347.757812 31.910156 348.867188 33.132812 C 349.976562 34.359375 351.054688 35.609375 352.101562 36.882812 C 353.148438 38.160156 354.164062 39.460938 355.148438 40.789062 C 356.128906 42.113281 357.082031 43.464844 357.996094 44.835938 C 358.914062 46.207031 359.796875 47.601562 360.648438 49.019531 C 361.496094 50.4375 362.308594 51.871094 363.085938 53.328125 C 363.867188 54.785156 364.609375 56.257812 365.3125 57.75 C 366.019531 59.242188 366.6875 60.753906 367.320312 62.277344 C 367.953125 63.804688 368.546875 65.34375 369.101562 66.898438 C 369.660156 68.453125 370.175781 70.019531 370.65625 71.597656 C 371.136719 73.179688 371.574219 74.769531 371.976562 76.371094 C 372.378906 77.972656 372.738281 79.582031 373.0625 81.203125 C 373.382812 82.820312 373.664062 84.449219 373.90625 86.082031 C 374.148438 87.714844 374.351562 89.351562 374.515625 90.996094 C 374.675781 92.640625 374.796875 94.285156 374.878906 95.933594 C 374.960938 97.582031 375 99.234375 375 100.882812 L 375 274.117188 C 375 275.765625 374.960938 277.417969 374.878906 279.066406 C 374.796875 280.714844 374.675781 282.359375 374.515625 284.003906 C 374.351562 285.648438 374.148438 287.285156 373.90625 288.917969 C 373.664062 290.550781 373.382812 292.175781 373.0625 293.796875 C 372.738281 295.417969 372.378906 297.027344 371.976562 298.628906 C 371.574219 300.230469 371.136719 301.820312 370.65625 303.402344 C 370.175781 304.980469 369.660156 306.546875 369.101562 308.101562 C 368.546875 309.65625 367.953125 311.195312 367.320312 312.722656 C 366.6875 314.246094 366.019531 315.757812 365.3125 317.25 C 364.609375 318.742188 363.867188 320.214844 363.085938 321.671875 C 362.308594 323.128906 361.496094 324.5625 360.648438 325.980469 C 359.796875 327.398438 358.914062 328.792969 357.996094 330.164062 C 357.082031 331.535156 356.128906 332.886719 355.148438 334.210938 C 354.164062 335.539062 353.148438 336.839844 352.101562 338.117188 C 351.054688 339.390625 349.976562 340.640625 348.867188 341.867188 C 347.757812 343.089844 346.617188 344.285156 345.453125 345.453125 C 344.285156 346.617188 343.089844 347.757812 341.867188 348.867188 C 340.640625 349.976562 339.390625 351.054688 338.117188 352.101562 C 336.839844 353.148438 335.539062 354.164062 334.210938 355.148438 C 332.886719 356.128906 331.535156 357.082031 330.164062 357.996094 C 328.792969 358.914062 327.398438 359.796875 325.980469 360.648438 C 324.5625 361.496094 323.128906 362.308594 321.671875 363.085938 C 320.214844 363.867188 318.742188 364.609375 317.25 365.3125 C 315.757812 366.019531 314.246094 366.6875 312.722656 367.320312 C 311.195312 367.953125 309.65625 368.546875 308.101562 369.101562 C 306.546875 369.660156 304.980469 370.175781 303.402344 370.65625 C 301.820312 371.136719 300.230469 371.574219 298.628906 371.976562 C 297.027344 372.378906 295.417969 372.738281 293.796875 373.0625 C 292.175781 373.382812 290.550781 373.664062 288.917969 373.90625 C 287.285156 374.148438 285.648438 374.351562 284.003906 374.515625 C 282.359375 374.675781 280.714844 374.796875 279.066406 374.878906 C 277.417969 374.960938 275.765625 375 274.117188 375 L 100.882812 375 C 99.234375 375 97.582031 374.960938 95.933594 374.878906 C 94.285156 374.796875 92.640625 374.675781 90.996094 374.515625 C 89.351562 374.351562 87.714844 374.148438 86.082031 373.90625 C 84.449219 373.664062 82.820312 373.382812 81.203125 373.0625 C 79.582031 372.738281 77.972656 372.378906 76.371094 371.976562 C 74.769531 371.574219 73.179688 371.136719 71.597656 370.65625 C 70.019531 370.175781 68.453125 369.660156 66.898438 369.101562 C 65.34375 368.546875 63.804688 367.953125 62.277344 367.320312 C 60.753906 366.6875 59.242188 366.019531 57.75 365.3125 C 56.257812 364.609375 54.785156 363.867188 53.328125 363.085938 C 51.871094 362.308594 50.4375 361.496094 49.019531 360.648438 C 47.601562 359.796875 46.207031 358.914062 44.835938 357.996094 C 43.464844 357.082031 42.113281 356.128906 40.789062 355.148438 C 39.460938 354.164062 38.160156 353.148438 36.882812 352.101562 C 35.609375 351.054688 34.359375 349.976562 33.132812 348.867188 C 31.910156 347.757812 30.714844 346.617188 29.546875 345.453125 C 28.382812 344.285156 27.242188 343.089844 26.132812 341.867188 C 25.023438 340.640625 23.945312 339.390625 22.898438 338.117188 C 21.851562 336.839844 20.835938 335.539062 19.851562 334.210938 C 18.871094 332.886719 17.917969 331.535156 17.003906 330.164062 C 16.085938 328.792969 15.203125 327.398438 14.351562 325.980469 C 13.503906 324.5625 12.691406 323.128906 11.914062 321.671875 C 11.132812 320.214844 10.390625 318.742188 9.6875 317.25 C 8.980469 315.757812 8.3125 314.246094 7.679688 312.722656 C 7.046875 311.195312 6.453125 309.65625 5.898438 308.101562 C 5.339844 306.546875 4.824219 304.980469 4.34375 303.402344 C 3.863281 301.820312 3.425781 300.230469 3.023438 298.628906 C 2.621094 297.027344 2.261719 295.417969 1.9375 293.796875 C 1.617188 292.175781 1.335938 290.550781 1.09375 288.917969 C 0.851562 287.285156 0.648438 285.648438 0.484375 284.003906 C 0.324219 282.359375 0.203125 280.714844 0.121094 279.066406 C 0.0390625 277.417969 0 275.765625 0 274.117188 L 0 100.882812 C 0 99.234375 0.0390625 97.582031 0.121094 95.933594 C 0.203125 94.285156 0.324219 92.640625 0.484375 90.996094 C 0.648438 89.351562 0.851562 87.714844 1.09375 86.082031 C 1.335938 84.449219 1.617188 82.820312 1.9375 81.203125 C 2.261719 79.582031 2.621094 77.972656 3.023438 76.371094 C 3.425781 74.769531 3.863281 73.179688 4.34375 71.597656 C 4.824219 70.019531 5.339844 68.453125 5.898438 66.898438 C 6.453125 65.34375 7.046875 63.804688 7.679688 62.277344 C 8.3125 60.753906 8.980469 59.242188 9.6875 57.75 C 10.390625 56.257812 11.132812 54.785156 11.914062 53.328125 C 12.691406 51.871094 13.503906 50.4375 14.351562 49.019531 C 15.203125 47.601562 16.085938 46.207031 17.003906 44.835938 C 17.917969 43.464844 18.871094 42.113281 19.851562 40.789062 C 20.835938 39.460938 21.851562 38.160156 22.898438 36.882812 C 23.945312 35.609375 25.023438 34.359375 26.132812 33.132812 C 27.242188 31.910156 28.382812 30.714844 29.546875 29.546875 C 30.714844 28.382812 31.910156 27.242188 33.132812 26.132812 C 34.359375 25.023438 35.609375 23.945312 36.882812 22.898438 C 38.160156 21.851562 39.460938 20.835938 40.789062 19.851562 C 42.113281 18.871094 43.464844 17.917969 44.835938 17.003906 C 46.207031 16.085938 47.601562 15.203125 49.019531 14.351562 C 50.4375 13.503906 51.871094 12.691406 53.328125 11.914062 C 54.785156 11.132812 56.257812 10.390625 57.75 9.6875 C 59.242188 8.980469 60.753906 8.3125 62.277344 7.679688 C 63.804688 7.046875 65.34375 6.453125 66.898438 5.898438 C 68.453125 5.339844 70.019531 4.824219 71.597656 4.34375 C 73.179688 3.863281 74.769531 3.425781 76.371094 3.023438 C 77.972656 2.621094 79.582031 2.261719 81.203125 1.9375 C 82.820312 1.617188 84.449219 1.335938 86.082031 1.09375 C 87.714844 0.851562 89.351562 0.648438 90.996094 0.484375 C 92.640625 0.324219 94.285156 0.203125 95.933594 0.121094 C 97.582031 0.0390625 99.234375 0 100.882812 0 Z M 100.882812 0 " clip-rule="nonzero"/></clipPath><clipPath id="46d44491ce"><path d="M 77.589844 87.722656 L 133 87.722656 L 133 287.222656 L 77.589844 287.222656 Z M 77.589844 87.722656 " clip-rule="nonzero"/></clipPath><clipPath id="3bf89ad137"><path d="M 132 87.722656 L 188 87.722656 L 188 287.222656 L 132 287.222656 Z M 132 87.722656 " clip-rule="nonzero"/></clipPath><clipPath id="29994cad6c"><path d="M 187 87.722656 L 243 87.722656 L 243 287.222656 L 187 287.222656 Z M 187 87.722656 " clip-rule="nonzero"/></clipPath><clipPath id="bf0ddf0129"><path d="M 242 87.722656 L 297.339844 87.722656 L 297.339844 287.222656 L 242 287.222656 Z M 242 87.722656 " clip-rule="nonzero"/></clipPath></defs><g clip-path="url(#2dd9d08ed0)"><rect x="-37.5" width="450" fill="#5170ff" y="-37.499999" height="449.999989" fill-opacity="1"/></g><g clip-path="url(#46d44491ce)"><path fill="#ffffff" d="M 78 287.222656 L 132.675781 220.660156 L 132.675781 87.722656 L 77.753906 154.59375 Z M 78 287.222656 " fill-opacity="1" fill-rule="nonzero"/></g><g clip-path="url(#3bf89ad137)"><path fill="#c0bff2" d="M 132.675781 87.722656 L 187.457031 154.285156 L 187.457031 287.222656 L 132.675781 220.351562 Z M 132.675781 87.722656 " fill-opacity="1" fill-rule="nonzero"/></g><g clip-path="url(#29994cad6c)"><path fill="#dbd5f4" d="M 187.703125 287.222656 L 242.378906 220.660156 L 242.378906 87.722656 L 187.457031 154.59375 Z M 187.703125 287.222656 " fill-opacity="1" fill-rule="nonzero"/></g><g clip-path="url(#bf0ddf0129)"><path fill="#a287ec" d="M 242.378906 87.722656 L 297.175781 154.285156 L 297.175781 287.222656 L 242.378906 220.351562 Z M 242.378906 87.722656 " fill-opacity="1" fill-rule="nonzero"/></g></svg>